<?xml version="1.0" standalone="no"?><!DOCTYPE svg PUBLIC "-//W3C//DTD SVG 1.1//EN" "http://www.w3.org/Graphics/SVG/1.1/DTD/svg11.dtd"><svg t="1700711203936" class="icon" viewBox="0 0 1235 1024" version="1.1" xmlns="http://www.w3.org/2000/svg" p-id="1114" xmlns:xlink="http://www.w3.org/1999/xlink" width="241.2109375" height="200"><path d="M70.4 443.42857156m72.68571469 0l375.77142843 0q72.68571469 0 72.68571375 72.68571375l0 238.62857156q0 72.68571469-72.68571375 72.68571469l-375.77142843 0q-72.68571469 0-72.68571469-72.68571469l0-238.62857156q0-72.68571469 72.68571469-72.68571375Z" fill="#00CC86" p-id="1115"></path><path d="M1083.88571469 841.41714312H138.14857156a93.80571469 93.80571469 0 0 1-93.80571468-93.80571468V125.80571469A93.80571469 93.80571469 0 0 1 138.14857156 32h945.73714313a93.80571469 93.80571469 0 0 1 93.80571375 93.80571469V416a27.42857156 27.42857156 0 0 1-54.85714313 0V125.80571469A39.22285687 39.22285687 0 0 0 1083.88571469 86.85714313H138.14857156a39.22285687 39.22285687 0 0 0-38.94857156 38.94857156v620.98285687a39.22285687 39.22285687 0 0 0 38.94857156 38.94857157h945.73714313a39.22285687 39.22285687 0 0 0 38.94857062-38.94857157v-167.04a27.42857156 27.42857156 0 0 1 54.85714313 0v167.04a93.80571469 93.80571469 0 0 1-93.80571375 94.62857157zM1162.88 992H59.42857156a27.42857156 27.42857156 0 0 1 0-54.85714313h1103.45142844a27.42857156 27.42857156 0 1 1 0 54.85714313z" fill="#492F5D" p-id="1116"></path><path d="M1137.64571469 665.87428531H84.38857156a27.42857156 27.42857156 0 1 1 0-54.85714219h1053.25714313a27.42857156 27.42857156 0 0 1 0 54.85714219zM611.01714313 992a27.42857156 27.42857156 0 0 1-27.42857157-27.42857156v-137.14285688a27.42857156 27.42857156 0 0 1 54.85714313 0v137.14285688a27.42857156 27.42857156 0 0 1-27.42857156 27.42857156z" fill="#492F5D" p-id="1117"></path></svg>